<svg width="31" height="31" viewBox="0 0 31 31" fill="none" xmlns="http://www.w3.org/2000/svg">
<path d="M30.8624 29.3069L22.4497 20.8942C24.4713 18.4672 25.4795 15.3542 25.2643 12.2029C25.0492 9.05155 23.6275 6.10445 21.2948 3.97467C18.9621 1.8449 15.8982 0.696433 12.7403 0.768185C9.58242 0.839938 6.57379 2.12639 4.34026 4.35991C2.10673 6.59344 0.820285 9.60208 0.748532 12.7599C0.676779 15.9178 1.82525 18.9818 3.95502 21.3144C6.08479 23.6471 9.0319 25.0689 12.1832 25.284C15.3346 25.4991 18.4476 24.491 20.8746 22.4694L29.2873 30.8821L30.8624 29.3069ZM3.01314 13.0585C3.01314 11.0756 3.60114 9.13726 4.70278 7.48853C5.80443 5.83981 7.37023 4.55478 9.2022 3.79596C11.0342 3.03713 13.05 2.83859 14.9948 3.22544C16.9396 3.61228 18.726 4.56714 20.1282 5.96927C21.5303 7.37139 22.4851 9.15781 22.872 11.1026C23.2588 13.0474 23.0603 15.0633 22.3015 16.8952C21.5426 18.7272 20.2576 20.293 18.6089 21.3946C16.9602 22.4963 15.0218 23.0843 13.0389 23.0843C10.3808 23.0813 7.83242 22.0241 5.95287 20.1446C4.07332 18.265 3.01609 15.7166 3.01314 13.0585Z" fill="white"/>
</svg>
