<svg width="33" height="31" viewBox="0 0 33 31" fill="none" xmlns="http://www.w3.org/2000/svg">
<path d="M23.9029 0.765015C21.048 0.765015 18.3565 2.07809 16.5618 4.21177C14.7671 2.07809 12.0756 0.765015 9.22079 0.765015C4.16347 0.765015 0.248413 4.70384 0.248413 9.7919C0.248413 16.0283 5.79482 21.0347 14.1961 28.7479L16.5618 30.8821L18.9276 28.7479C27.3288 21.0346 32.8752 16.0283 32.8752 9.7919C32.8752 4.70384 28.9602 0.765015 23.9029 0.765015ZM17.5686 26.5886L17.2377 26.8924L16.5618 27.502L15.8861 26.8924L15.5556 26.589C11.6013 22.9591 8.18622 19.8241 5.92862 17.021C3.73595 14.2985 2.75817 12.069 2.75817 9.7919C2.75817 7.9986 3.4187 6.3464 4.61813 5.13975C5.81356 3.93711 7.44812 3.27477 9.22079 3.27477C11.2705 3.27477 13.2968 4.22903 14.6411 5.82727L16.5618 8.11083L18.4825 5.82727C19.8269 4.22903 21.8531 3.27477 23.9029 3.27477C25.6756 3.27477 27.3101 3.93711 28.5056 5.13968C29.7049 6.3464 30.3655 7.99852 30.3655 9.7919C30.3655 12.069 29.3877 14.2984 27.1952 17.0209C24.9377 19.8239 21.5227 22.9587 17.5686 26.5886Z" fill="white"/>
</svg>
