<svg width="41" height="41" viewBox="0 0 41 41" fill="none" xmlns="http://www.w3.org/2000/svg">
<path fill-rule="evenodd" clip-rule="evenodd" d="M4.58618 19.8764C4.58618 11.362 11.4885 4.45972 20.0028 4.45972C28.5172 4.45972 35.4195 11.362 35.4195 19.8764C35.4195 22.1126 35.0166 23.8364 34.5983 25.0216C34.3983 25.5882 34.1953 26.0303 34.0324 26.3454L37.022 35.3144C37.1718 35.7636 37.0549 36.2588 36.7201 36.5936C36.3853 36.9284 35.8901 37.0453 35.4409 36.8956L26.4852 33.9103C26.1782 34.0741 25.7532 34.2736 25.2072 34.4696C24.0311 34.8917 22.3051 35.293 20.0028 35.293C11.4885 35.293 4.58618 28.3907 4.58618 19.8764ZM25.5932 31.5378L25.5942 31.5371L25.5959 31.5358L25.5988 31.5337L25.6014 31.5318L25.6025 31.531L25.6035 31.5304C25.6035 31.5304 25.603 31.5306 25.6022 31.5312C25.602 31.5314 25.6017 31.5316 25.6014 31.5318C25.5968 31.5349 25.5846 31.5433 25.5648 31.556C25.525 31.5816 25.4545 31.625 25.3527 31.6807C25.1493 31.7919 24.8207 31.9522 24.3627 32.1165C23.4491 32.4444 22.0084 32.793 20.0028 32.793C12.8692 32.793 7.08618 27.01 7.08618 19.8764C7.08618 12.7427 12.8692 6.95972 20.0028 6.95972C27.1365 6.95972 32.9195 12.7427 32.9195 19.8764C32.9195 21.8069 32.5725 23.2497 32.2408 24.1895C32.0746 24.6603 31.9117 25.0065 31.7968 25.2257C31.7394 25.3352 31.694 25.413 31.6662 25.4585C31.6524 25.4813 31.6429 25.4961 31.6386 25.5027L31.6379 25.5039L31.6361 25.5065C31.6358 25.507 31.6359 25.5067 31.6366 25.5058C31.637 25.5051 31.6377 25.5041 31.6386 25.5027M31.6412 25.4991C31.6412 25.4991 31.6412 25.4991 31.6412 25.4991L31.6409 25.4995C31.641 25.4994 31.6411 25.4992 31.6412 25.4991ZM31.6397 25.5012L31.6395 25.5014L31.6395 25.5016C31.6396 25.5014 31.6396 25.5013 31.6397 25.5012ZM12.9195 16.543C12.9195 15.8527 13.4792 15.293 14.1695 15.293H25.8362C26.5265 15.293 27.0862 15.8527 27.0862 16.543C27.0862 17.2334 26.5265 17.793 25.8362 17.793H14.1695C13.4792 17.793 12.9195 17.2334 12.9195 16.543ZM12.9195 23.2097C12.9195 22.5194 13.4792 21.9597 14.1695 21.9597H22.5028C23.1932 21.9597 23.7528 22.5194 23.7528 23.2097C23.7528 23.9001 23.1932 24.4597 22.5028 24.4597H14.1695C13.4792 24.4597 12.9195 23.9001 12.9195 23.2097Z" fill="white"/>
</svg>
