<svg width="48" height="50" viewBox="0 0 48 50" fill="none" xmlns="http://www.w3.org/2000/svg">
<path fill-rule="evenodd" clip-rule="evenodd" d="M32.6495 30.7743L43.4095 41.7584C43.7877 42.1448 44.0001 42.6687 43.9999 43.2149C43.9997 43.7611 43.787 44.2848 43.4085 44.6709C43.0301 45.0569 42.5169 45.2737 41.9818 45.2735C41.4468 45.2734 40.9337 45.0562 40.5555 44.6699L29.7955 33.6857C26.579 36.2289 22.5341 37.4258 18.4838 37.0327C14.4335 36.6396 10.682 34.6862 7.9925 31.5697C5.303 28.4533 3.87752 24.408 4.00604 20.2567C4.13456 16.1055 5.80744 12.1601 8.68435 9.22326C11.5613 6.28642 15.4261 4.57869 19.4926 4.44749C23.5592 4.31629 27.5219 5.77147 30.5748 8.517C33.6276 11.2625 35.5412 15.0922 35.9262 19.2269C36.3113 23.3615 35.1389 27.4907 32.6475 30.7743H32.6495ZM19.9995 33.0221C23.1821 33.0221 26.2344 31.7315 28.4848 29.4342C30.7353 27.1369 31.9995 24.021 31.9995 20.7721C31.9995 17.5232 30.7353 14.4074 28.4848 12.1101C26.2344 9.81276 23.1821 8.52214 19.9995 8.52214C16.8169 8.52214 13.7647 9.81276 11.5143 12.1101C9.26382 14.4074 7.99954 17.5232 7.99954 20.7721C7.99954 24.021 9.26382 27.1369 11.5143 29.4342C13.7647 31.7315 16.8169 33.0221 19.9995 33.0221Z" fill="#0F2A36"/>
</svg>
