<svg width="18" height="20" viewBox="0 0 18 20" fill="none" xmlns="http://www.w3.org/2000/svg">
<path fill-rule="evenodd" clip-rule="evenodd" d="M9.24674 2.06229C8.58528 2.06229 8.04911 2.59848 8.04911 3.25992C8.04911 3.92137 8.58528 4.45756 9.24674 4.45756C9.9082 4.45756 10.4444 3.92137 10.4444 3.25992C10.4444 2.59848 9.9082 2.06229 9.24674 2.06229ZM6.71112 2.54134C7.0239 1.43544 8.04067 0.625122 9.24674 0.625122C10.4528 0.625122 11.4696 1.43544 11.7824 2.54134H16.9116C17.3085 2.54134 17.6302 2.86306 17.6302 3.25992C17.6302 3.65679 17.3085 3.97851 16.9116 3.97851H11.7824C11.4696 5.0844 10.4528 5.89473 9.24674 5.89473C8.04067 5.89473 7.0239 5.0844 6.71112 3.97851H1.58186C1.185 3.97851 0.863281 3.65679 0.863281 3.25992C0.863281 2.86306 1.185 2.54134 1.58186 2.54134H6.71112ZM12.4598 9.24811C12.7726 8.1422 13.7893 7.33189 14.9954 7.33189C16.4506 7.33189 17.6302 8.5115 17.6302 9.96669C17.6302 11.4219 16.4506 12.6015 14.9954 12.6015C13.7893 12.6015 12.7726 11.7912 12.4598 10.6853H1.58186C1.185 10.6853 0.863281 10.3636 0.863281 9.96669C0.863281 9.56983 1.185 9.24811 1.58186 9.24811H12.4598ZM14.9954 8.76906C14.3339 8.76906 13.7978 9.30523 13.7978 9.96669C13.7978 10.6282 14.3339 11.1643 14.9954 11.1643C15.6569 11.1643 16.193 10.6282 16.193 9.96669C16.193 9.30523 15.6569 8.76906 14.9954 8.76906ZM0.863281 16.6735C0.863281 15.2183 2.04293 14.0387 3.49808 14.0387C4.70413 14.0387 5.72092 14.849 6.03371 15.9549H16.9116C17.3085 15.9549 17.6302 16.2766 17.6302 16.6735C17.6302 17.0703 17.3085 17.392 16.9116 17.392H6.03371C5.72092 18.498 4.70413 19.3083 3.49808 19.3083C2.04293 19.3083 0.863281 18.1287 0.863281 16.6735ZM3.49808 15.4758C2.83664 15.4758 2.30045 16.012 2.30045 16.6735C2.30045 17.3349 2.83664 17.8711 3.49808 17.8711C4.15953 17.8711 4.69572 17.3349 4.69572 16.6735C4.69572 16.012 4.15953 15.4758 3.49808 15.4758Z" fill="white"/>
</svg>
