<svg width="30" height="33" viewBox="0 0 30 33" fill="none" xmlns="http://www.w3.org/2000/svg">
<path d="M15.0857 14.5484C13.3107 14.5484 11.6084 13.8433 10.3533 12.5882C9.09819 11.3331 8.39307 9.63078 8.39307 7.85577C8.39307 6.08076 9.09819 4.37845 10.3533 3.12333C11.6084 1.86821 13.3107 1.16309 15.0857 1.16309C16.8608 1.16309 18.5631 1.86821 19.8182 3.12333C21.0733 4.37845 21.7784 6.08076 21.7784 7.85577C21.7784 9.63078 21.0733 11.3331 19.8182 12.5882C18.5631 13.8433 16.8608 14.5484 15.0857 14.5484Z" stroke="white" stroke-width="2" stroke-linecap="round"/>
<path d="M1.70007 31.2803V29.6071C1.70007 26.9446 2.75775 24.3912 4.64044 22.5085C6.52312 20.6258 9.07658 19.5681 11.7391 19.5681H18.4318C21.0943 19.5681 23.6478 20.6258 25.5304 22.5085C27.4131 24.3912 28.4708 26.9446 28.4708 29.6071V31.2803" stroke="white" stroke-width="2" stroke-linecap="round"/>
</svg>
